<?xml version="1.0" encoding="UTF-8" standalone="no"?>
<svg
   xmlns:dc="http://purl.org/dc/elements/1.1/"
   xmlns:cc="http://creativecommons.org/ns#"
   xmlns:rdf="http://www.w3.org/1999/02/22-rdf-syntax-ns#"
   xmlns:svg="http://www.w3.org/2000/svg"
   xmlns="http://www.w3.org/2000/svg"
   xmlns:sodipodi="http://sodipodi.sourceforge.net/DTD/sodipodi-0.dtd"
   xmlns:inkscape="http://www.inkscape.org/namespaces/inkscape"
   width="40"
   height="40"
   viewBox="0 0 40 40"
   fill="none"
   version="1.1"
   id="svg6"
   sodipodi:docname="ok-symbol-alpha_.svg"
   inkscape:version="1.0.1 (3bc2e813f5, 2020-09-07)">
  <style></style>
  <metadata
     id="metadata12">
    <rdf:RDF>
      <cc:Work
         rdf:about="">
        <dc:format>image/svg+xml</dc:format>
        <dc:type
           rdf:resource="http://purl.org/dc/dcmitype/StillImage" />
        <dc:title></dc:title>
      </cc:Work>
    </rdf:RDF>
  </metadata>
  <defs
     id="defs10" />
  <sodipodi:namedview
     pagecolor="#ffffff"
     bordercolor="#666666"
     borderopacity="1"
     objecttolerance="10"
     gridtolerance="10"
     guidetolerance="10"
     inkscape:pageopacity="0"
     inkscape:pageshadow="2"
     inkscape:window-width="1920"
     inkscape:window-height="1009"
     id="namedview8"
     showgrid="false"
     inkscape:zoom="20.488341"
     inkscape:cx="20"
     inkscape:cy="20"
     inkscape:window-x="-8"
     inkscape:window-y="-8"
     inkscape:window-maximized="1"
     inkscape:current-layer="svg6" />
  <path
     id="path2"
     style="fill:#ffffff;fill-opacity:1"
     d="M 20 0 C 8.95133 0 0 8.95133 0 20 C 0 31.0487 8.95133 40 20 40 C 31.0487 40 40 31.0487 40 20 C 40 8.95133 31.0487 0 20 0 z M 20.259766 11.736328 C 22.487566 11.736328 24.294922 13.551362 24.294922 15.789062 C 24.294922 18.026863 22.487566 19.841797 20.259766 19.841797 C 18.032066 19.841797 16.224609 18.026863 16.224609 15.789062 C 16.224609 13.551363 18.032066 11.736328 20.259766 11.736328 z M 20.259766 13.794922 C 19.161566 13.794922 18.273438 14.685862 18.273438 15.789062 C 18.273438 16.892263 19.161566 17.785156 20.259766 17.785156 C 21.358066 17.785156 22.246094 16.892263 22.246094 15.789062 C 22.246094 14.685863 21.358066 13.794922 20.259766 13.794922 z M 16.460938 19.798828 C 16.706991 19.804504 16.993144 19.906875 17.308594 20.15625 C 18.437994 21.04825 20.259766 21.046875 20.259766 21.046875 C 20.259766 21.046875 22.083391 21.04825 23.212891 20.15625 C 24.054091 19.49125 24.684356 19.874337 24.910156 20.335938 L 24.925781 20.34375 C 25.323081 21.14185 24.871975 21.532241 23.859375 22.181641 C 22.994775 22.729341 21.825888 22.941331 21.054688 23.019531 L 21.693359 23.660156 L 24.068359 26.046875 C 24.426659 26.406775 24.426659 27.001428 24.068359 27.361328 L 23.958984 27.470703 C 23.600584 27.830603 23.008791 27.830603 22.650391 27.470703 C 22.050691 26.868203 21.178991 25.991584 20.275391 25.083984 L 17.900391 27.470703 C 17.542091 27.830603 16.950097 27.830603 16.591797 27.470703 L 16.482422 27.361328 C 16.124122 27.001428 16.124122 26.406775 16.482422 26.046875 C 17.082222 25.444375 17.953822 24.567756 18.857422 23.660156 L 19.496094 23.019531 C 18.724894 22.941331 17.542334 22.729328 16.677734 22.173828 C 15.665134 21.524428 15.212175 21.134038 15.609375 20.335938 C 15.750562 20.047438 16.050849 19.789369 16.460938 19.798828 z " />
</svg>
