<?xml version="1.0" encoding="UTF-8" standalone="no"?>
<svg
   xmlns:dc="http://purl.org/dc/elements/1.1/"
   xmlns:cc="http://creativecommons.org/ns#"
   xmlns:rdf="http://www.w3.org/1999/02/22-rdf-syntax-ns#"
   xmlns:svg="http://www.w3.org/2000/svg"
   xmlns="http://www.w3.org/2000/svg"
   xmlns:sodipodi="http://sodipodi.sourceforge.net/DTD/sodipodi-0.dtd"
   xmlns:inkscape="http://www.inkscape.org/namespaces/inkscape"
   width="50"
   height="50"
   viewBox="0 0 50 50"
   fill="none"
   version="1.1"
   id="svg6"
   sodipodi:docname="ok_alpha.svg"
   inkscape:version="1.0.1 (3bc2e813f5, 2020-09-07)">
  <style
     id="style2400"></style>
  <metadata
     id="metadata12">
    <rdf:RDF>
      <cc:Work
         rdf:about="">
        <dc:format>image/svg+xml</dc:format>
        <dc:type
           rdf:resource="http://purl.org/dc/dcmitype/StillImage" />
        <dc:title></dc:title>
      </cc:Work>
    </rdf:RDF>
  </metadata>
  <defs
     id="defs10" />
  <sodipodi:namedview
     pagecolor="#ffffff"
     bordercolor="#666666"
     borderopacity="1"
     objecttolerance="10"
     gridtolerance="10"
     guidetolerance="10"
     inkscape:pageopacity="0"
     inkscape:pageshadow="2"
     inkscape:window-width="1920"
     inkscape:window-height="1009"
     id="namedview8"
     showgrid="false"
     inkscape:zoom="16.390673"
     inkscape:cx="24.812012"
     inkscape:cy="25"
     inkscape:window-x="-8"
     inkscape:window-y="-8"
     inkscape:window-maximized="1"
     inkscape:current-layer="svg6" />
  <path
     d="M 50,25 C 50,38.8108 38.81078,50 25.000006,50 11.189132,50 0,38.8108 0,25 0,11.1892 11.189132,0 25.000006,0 38.81078,0 50,11.1892 50,25 Z"
     fill="#1535a3"
     id="path2"
     style="stroke-width:0.999998;fill:#1535a3;fill-opacity:0" />
  <path
     d="m 25.332512,24.8031 c 2.7854,0 5.045,-2.269 5.045,-5.0661 0,-2.7972 -2.2596,-5.0662 -5.045,-5.0662 -2.7855,0 -5.045,2.269 -5.045,5.0662 0,2.7971 2.2595,5.0661 5.045,5.0661 z m 0,-7.5601 c 1.3732,0 2.4835,1.1149 2.4835,2.494 0,1.379 -1.1103,2.4939 -2.4835,2.4939 -1.3733,0 -2.4836,-1.1149 -2.4836,-2.4939 0,-1.3791 1.1103,-2.494 2.4836,-2.494 z m 5.8144,8.1763 c -0.2825,-0.577 -1.0714,-1.0563 -2.1232,-0.2249 -1.4122,1.1149 -3.6912,1.1149 -3.6912,1.1149 0,0 -2.279,0 -3.6913,-1.1149 -1.0518,-0.8314 -1.8407,-0.3521 -2.1231,0.2249 -0.4967,0.9976 0.0681,1.4866 1.3343,2.2984 1.081,0.6944 2.5614,0.9584 3.5256,1.0562 l -0.7986,0.802 c -1.1298,1.1345 -2.2206,2.2299 -2.9705,2.983 -0.448,0.4499 -0.448,1.1932 0,1.6431 l 0.1363,0.1369 c 0.448,0.4499 1.1882,0.4499 1.6362,0 l 2.9705,-2.983 c 1.1298,1.1345 2.2206,2.2299 2.9706,2.983 0.448,0.4499 1.1882,0.4499 1.6362,0 l 0.1363,-0.1369 c 0.448,-0.4499 0.448,-1.1932 0,-1.6431 l -2.9705,-2.983 -0.7986,-0.802 c 0.9642,-0.0978 2.4251,-0.3618 3.5062,-1.0465 1.2661,-0.8117 1.831,-1.3007 1.3342,-2.2983"
     fill="#ffffff"
     id="path4" />
</svg>
