<?xml version="1.0" encoding="UTF-8" standalone="no"?>
<svg
   xmlns:dc="http://purl.org/dc/elements/1.1/"
   xmlns:cc="http://creativecommons.org/ns#"
   xmlns:rdf="http://www.w3.org/1999/02/22-rdf-syntax-ns#"
   xmlns:svg="http://www.w3.org/2000/svg"
   xmlns="http://www.w3.org/2000/svg"
   xmlns:sodipodi="http://sodipodi.sourceforge.net/DTD/sodipodi-0.dtd"
   xmlns:inkscape="http://www.inkscape.org/namespaces/inkscape"
   width="50"
   height="50"
   viewBox="0 0 50 50"
   fill="none"
   version="1.1"
   id="svg6"
   sodipodi:docname="telegram_alpha.svg"
   inkscape:version="1.0.1 (3bc2e813f5, 2020-09-07)">
  <style
     id="style2400"></style>
  <metadata
     id="metadata12">
    <rdf:RDF>
      <cc:Work
         rdf:about="">
        <dc:format>image/svg+xml</dc:format>
        <dc:type
           rdf:resource="http://purl.org/dc/dcmitype/StillImage" />
        <dc:title></dc:title>
      </cc:Work>
    </rdf:RDF>
  </metadata>
  <defs
     id="defs10" />
  <sodipodi:namedview
     pagecolor="#ffffff"
     bordercolor="#666666"
     borderopacity="1"
     objecttolerance="10"
     gridtolerance="10"
     guidetolerance="10"
     inkscape:pageopacity="0"
     inkscape:pageshadow="2"
     inkscape:window-width="1920"
     inkscape:window-height="1009"
     id="namedview8"
     showgrid="false"
     inkscape:zoom="16.390673"
     inkscape:cx="25.43457"
     inkscape:cy="25"
     inkscape:window-x="-8"
     inkscape:window-y="-8"
     inkscape:window-maximized="1"
     inkscape:current-layer="svg6" />
  <path
     d="m 49.999999,25 c 0,13.8108 -11.189128,25 -25.000014,25 C 11.189199,50 0,38.8108 0,25 0,11.1892 11.199096,0 24.999985,0 38.800973,0 49.999999,11.1892 49.999999,25 Z"
     fill="#1535a3"
     id="path2"
     style="stroke-width:0.999998;fill:#1535a3;fill-opacity:0" />
  <path
     d="m 35.35687,16.9392 c -0.1259,0.5593 -0.2562,1.1181 -0.3764,1.6793 -0.6502,3.0385 -1.2979,6.0777 -1.9462,9.1169 -0.4453,2.0871 -0.8876,4.1742 -1.3411,6.2594 -0.0588,0.2706 -0.149,0.5437 -0.2756,0.7892 -0.2461,0.4761 -0.6708,0.6571 -1.18,0.5086 -0.2425,-0.0707 -0.4892,-0.1772 -0.6928,-0.3244 -1.7388,-1.2597 -3.4683,-2.5325 -5.2008,-3.8009 -0.0564,-0.0413 -0.1147,-0.0808 -0.1879,-0.1321 -0.052,0.0438 -0.1059,0.0851 -0.1548,0.1315 -0.8938,0.8512 -1.7883,1.7025 -2.6802,2.5556 -0.2593,0.2481 -0.5588,0.3877 -0.9502,0.374 0.0325,-0.4917 0.062,-0.9703 0.0964,-1.4495 0.0708,-0.989 0.1435,-1.9775 0.2155,-2.9665 0.0106,-0.1478 0.0514,-0.3 0.0294,-0.4428 -0.092,-0.607 0.2788,-0.9409 0.6809,-1.2998 3.1707,-2.83 6.3295,-5.6737 9.4915,-8.5137 0.0639,-0.0576 0.1378,-0.1109 0.181,-0.1816 0.0407,-0.0664 0.084,-0.1717 0.057,-0.2274 -0.0269,-0.0564 -0.1484,-0.1159 -0.2092,-0.1002 -0.2148,0.0557 -0.4428,0.109 -0.6276,0.2242 -2.763,1.7182 -5.5197,3.4451 -8.2776,5.1714 -1.3887,0.8688 -2.7761,1.7413 -4.1685,2.6038 -0.0909,0.0564 -0.2381,0.0846 -0.337,0.0545 -1.7651,-0.5393 -3.5284,-1.0861 -5.2879,-1.6417 -0.2117,-0.067 -0.4222,-0.1698 -0.6026,-0.2988 -0.3301,-0.2355 -0.3733,-0.5825 -0.0783,-0.8588 0.228,-0.2136 0.5055,-0.4027 0.7949,-0.518 1.3818,-0.5518 2.7749,-1.0748 4.1642,-1.6073 5.6806,-2.1754 11.3612,-4.3527 17.0449,-6.5224 0.2575,-0.0984 0.5393,-0.1754 0.8118,-0.1836 0.4742,-0.0144 0.7999,0.2638 0.9458,0.7241 0.0188,0.0583 0.0408,0.1159 0.0614,0.1742 v 0.7034 z"
     fill="#ffffff"
     id="path4" />
</svg>
