<?xml version="1.0" encoding="UTF-8" standalone="no"?>
<svg
   xmlns:dc="http://purl.org/dc/elements/1.1/"
   xmlns:cc="http://creativecommons.org/ns#"
   xmlns:rdf="http://www.w3.org/1999/02/22-rdf-syntax-ns#"
   xmlns:svg="http://www.w3.org/2000/svg"
   xmlns="http://www.w3.org/2000/svg"
   xmlns:sodipodi="http://sodipodi.sourceforge.net/DTD/sodipodi-0.dtd"
   xmlns:inkscape="http://www.inkscape.org/namespaces/inkscape"
   width="40"
   height="40"
   viewBox="0 0 40 40"
   fill="none"
   version="1.1"
   id="svg2424"
   sodipodi:docname="telegram-symbol-alpha_.svg"
   inkscape:version="1.0.1 (3bc2e813f5, 2020-09-07)">
  <style></style>
  <metadata
     id="metadata2430">
    <rdf:RDF>
      <cc:Work
         rdf:about="">
        <dc:format>image/svg+xml</dc:format>
        <dc:type
           rdf:resource="http://purl.org/dc/dcmitype/StillImage" />
        <dc:title></dc:title>
      </cc:Work>
    </rdf:RDF>
  </metadata>
  <defs
     id="defs2428" />
  <sodipodi:namedview
     pagecolor="#ffffff"
     bordercolor="#666666"
     borderopacity="1"
     objecttolerance="10"
     gridtolerance="10"
     guidetolerance="10"
     inkscape:pageopacity="0"
     inkscape:pageshadow="2"
     inkscape:window-width="1920"
     inkscape:window-height="1009"
     id="namedview2426"
     showgrid="false"
     inkscape:zoom="20.488341"
     inkscape:cx="20"
     inkscape:cy="14.14301"
     inkscape:window-x="-8"
     inkscape:window-y="-8"
     inkscape:window-maximized="1"
     inkscape:current-layer="svg2424" />
  <path
     id="path2420"
     style="fill:#ffffff;fill-opacity:1"
     d="M 20 0 C 8.95924 0 0 8.95133 0 20 C 0 31.0487 8.95133 40 20 40 C 31.0487 40 40 31.0487 40 20 C 40 8.95133 31.0408 0 20 0 z M 27.472656 12.269531 C 27.851856 12.258031 28.111816 12.481309 28.228516 12.849609 C 28.243616 12.896209 28.260844 12.941681 28.277344 12.988281 L 28.277344 13.550781 L 28.277344 13.552734 C 28.176773 13.999514 28.072629 14.446153 27.976562 14.894531 C 27.456563 17.325431 26.938422 19.7562 26.419922 22.1875 C 26.063722 23.8572 25.710356 25.527113 25.347656 27.195312 C 25.300556 27.411713 25.228153 27.629772 25.126953 27.826172 C 24.930053 28.207072 24.590894 28.353175 24.183594 28.234375 C 23.989694 28.177775 23.791706 28.092309 23.628906 27.974609 C 22.238306 26.966909 20.856303 25.948294 19.470703 24.933594 C 19.425603 24.900494 19.378912 24.869225 19.320312 24.828125 C 19.278712 24.863225 19.234413 24.896494 19.195312 24.933594 C 18.480512 25.614594 17.766134 26.296016 17.052734 26.978516 C 16.845334 27.176916 16.606069 27.288444 16.292969 27.277344 C 16.318969 26.884044 16.341641 26.500488 16.369141 26.117188 C 16.425741 25.325888 16.483416 24.535341 16.541016 23.744141 C 16.549616 23.625841 16.581953 23.504825 16.564453 23.390625 C 16.490853 22.905025 16.787775 22.636709 17.109375 22.349609 C 19.645275 20.085609 22.172272 17.811062 24.701172 15.539062 C 24.752272 15.492963 24.811203 15.451131 24.845703 15.394531 C 24.878303 15.341431 24.912225 15.255538 24.890625 15.210938 C 24.869125 15.165838 24.773209 15.118359 24.724609 15.130859 C 24.552809 15.175459 24.370356 15.218347 24.222656 15.310547 C 22.012856 16.685147 19.807263 18.066266 17.601562 19.447266 C 16.490962 20.142366 15.381178 20.84125 14.267578 21.53125 C 14.194978 21.57635 14.077147 21.598319 13.998047 21.574219 C 12.586347 21.142719 11.176751 20.706219 9.7695312 20.261719 C 9.6002012 20.208119 9.4313894 20.126637 9.2871094 20.023438 C 9.0231094 19.835037 8.9886494 19.556938 9.2246094 19.335938 C 9.4069494 19.165038 9.6298881 19.014075 9.8613281 18.921875 C 10.966478 18.480375 12.080306 18.060766 13.191406 17.634766 C 17.734606 15.894466 22.276566 14.153769 26.822266 12.417969 C 27.028166 12.339269 27.254756 12.276131 27.472656 12.269531 z " />
</svg>
