<?xml version="1.0" encoding="UTF-8" standalone="no"?>
<svg
   xmlns:dc="http://purl.org/dc/elements/1.1/"
   xmlns:cc="http://creativecommons.org/ns#"
   xmlns:rdf="http://www.w3.org/1999/02/22-rdf-syntax-ns#"
   xmlns:svg="http://www.w3.org/2000/svg"
   xmlns="http://www.w3.org/2000/svg"
   xmlns:sodipodi="http://sodipodi.sourceforge.net/DTD/sodipodi-0.dtd"
   xmlns:inkscape="http://www.inkscape.org/namespaces/inkscape"
   width="40"
   height="40"
   viewBox="0 0 40 40"
   fill="none"
   version="1.1"
   id="svg4577"
   sodipodi:docname="vk-symbol-alpha_.svg"
   inkscape:version="1.0.1 (3bc2e813f5, 2020-09-07)">
  <style
     id="style6709"></style>
  <metadata
     id="metadata4583">
    <rdf:RDF>
      <cc:Work
         rdf:about="">
        <dc:format>image/svg+xml</dc:format>
        <dc:type
           rdf:resource="http://purl.org/dc/dcmitype/StillImage" />
        <dc:title></dc:title>
      </cc:Work>
    </rdf:RDF>
  </metadata>
  <defs
     id="defs4581" />
  <sodipodi:namedview
     pagecolor="#ffffff"
     bordercolor="#666666"
     borderopacity="1"
     objecttolerance="10"
     gridtolerance="10"
     guidetolerance="10"
     inkscape:pageopacity="0"
     inkscape:pageshadow="2"
     inkscape:window-width="1920"
     inkscape:window-height="1009"
     id="namedview4579"
     showgrid="false"
     inkscape:zoom="20.488341"
     inkscape:cx="20"
     inkscape:cy="20"
     inkscape:window-x="-8"
     inkscape:window-y="-8"
     inkscape:window-maximized="1"
     inkscape:current-layer="svg4577" />
  <path
     id="path4573"
     style="fill:#ffffff;fill-opacity:1"
     d="M 20 0 C 8.95133 0 0 8.95133 0 20 C 0 31.0487 8.95133 40 20 40 C 31.0487 40 40 31.0487 40 20 C 40 8.95133 31.0487 0 20 0 z M 19.046875 13.871094 C 19.381788 13.872323 19.601562 13.888672 19.601562 13.888672 C 19.601562 13.888672 20.759694 14.169391 21.183594 14.462891 C 21.349194 14.567191 21.548456 14.9444 21.535156 16.125 C 21.475556 17.9319 21.283697 20.371094 22.091797 20.371094 C 22.707797 20.397194 23.675062 18.963763 24.476562 17.476562 C 25.172062 16.165463 25.708766 14.886222 25.947266 14.794922 C 26.205566 14.690522 27.323959 14.689522 28.443359 14.669922 C 29.542959 14.669922 30.641825 14.670778 30.953125 14.892578 L 30.947266 14.878906 C 31.530166 15.374706 30.504212 16.947353 29.570312 18.251953 C 28.815213 19.334753 27.331028 20.7368 27.423828 21.5 C 27.529828 22.5567 31.337534 24.807838 31.052734 26.523438 C 30.926934 27.306138 29.609159 27.162712 28.443359 27.195312 C 27.370359 27.241012 26.316744 27.161856 25.839844 26.972656 C 25.051644 26.672656 22.966287 23.966653 22.429688 24.064453 C 21.210988 24.312353 21.653834 26.803056 21.302734 26.972656 C 20.772834 27.220556 19.104178 27.149284 18.455078 27.083984 C 15.037178 26.523084 13.062472 24.273153 11.201172 21.376953 C 8.9093819 17.854553 7.5518656 15.225919 8.1347656 14.886719 C 8.7507756 14.554019 10.531813 14.631463 12.320312 14.664062 C 12.870012 14.690162 14.421331 18.518903 14.832031 19.158203 C 16.454831 21.708603 16.957134 19.817503 16.990234 19.595703 C 17.434034 15.003603 16.294741 15.206534 15.619141 15.115234 C 15.986791 13.999759 18.042137 13.867405 19.046875 13.871094 z " />
</svg>
