<?xml version="1.0" encoding="UTF-8" standalone="no"?>
<svg
   xmlns:dc="http://purl.org/dc/elements/1.1/"
   xmlns:cc="http://creativecommons.org/ns#"
   xmlns:rdf="http://www.w3.org/1999/02/22-rdf-syntax-ns#"
   xmlns:svg="http://www.w3.org/2000/svg"
   xmlns="http://www.w3.org/2000/svg"
   xmlns:sodipodi="http://sodipodi.sourceforge.net/DTD/sodipodi-0.dtd"
   xmlns:inkscape="http://www.inkscape.org/namespaces/inkscape"
   width="40"
   height="40"
   viewBox="0 0 40 40"
   fill="none"
   version="1.1"
   id="svg6728"
   sodipodi:docname="youtube-symbol-alpha_.svg"
   inkscape:version="1.0.1 (3bc2e813f5, 2020-09-07)">
  <style></style>
  <metadata
     id="metadata6734">
    <rdf:RDF>
      <cc:Work
         rdf:about="">
        <dc:format>image/svg+xml</dc:format>
        <dc:type
           rdf:resource="http://purl.org/dc/dcmitype/StillImage" />
        <dc:title></dc:title>
      </cc:Work>
    </rdf:RDF>
  </metadata>
  <defs
     id="defs6732" />
  <sodipodi:namedview
     pagecolor="#ffffff"
     bordercolor="#666666"
     borderopacity="1"
     objecttolerance="10"
     gridtolerance="10"
     guidetolerance="10"
     inkscape:pageopacity="0"
     inkscape:pageshadow="2"
     inkscape:window-width="1920"
     inkscape:window-height="1009"
     id="namedview6730"
     showgrid="false"
     inkscape:zoom="20.488341"
     inkscape:cx="20"
     inkscape:cy="20"
     inkscape:window-x="-8"
     inkscape:window-y="-8"
     inkscape:window-maximized="1"
     inkscape:current-layer="svg6728" />
  <path
     id="path6724"
     style="fill:#ffffff;fill-opacity:1"
     d="M 20 0 C 8.95924 0 0 8.95133 0 20 C 0 31.0487 8.95133 40 20 40 C 31.0487 40 40 31.0487 40 20 C 40 8.95133 31.0408 0 20 0 z M 19.998047 11.736328 L 20.021484 11.736328 C 20.021484 11.736328 24.608963 11.735691 27.664062 11.962891 C 28.080263 12.025491 29.015156 12.034747 29.847656 12.935547 C 30.499556 13.617147 30.726562 15.191406 30.726562 15.191406 C 30.726563 15.191406 30.939453 17.040022 30.939453 18.857422 L 30.939453 20.595703 C 30.939453 22.444503 30.726562 24.263672 30.726562 24.263672 C 30.726563 24.263672 30.499556 25.837956 29.847656 26.535156 C 29.015156 27.443956 28.080262 27.443259 27.664062 27.505859 C 24.608963 27.717359 20.021484 27.740234 20.021484 27.740234 C 20.021484 27.740234 14.335397 27.686059 12.591797 27.505859 C 12.089197 27.411859 10.998428 27.443956 10.173828 26.535156 C 9.5219581 25.837956 9.2949219 24.263672 9.2949219 24.263672 C 9.2949219 24.263672 9.0664062 22.436703 9.0664062 20.595703 L 9.0664062 18.857422 C 9.0664062 17.032122 9.2949219 15.191406 9.2949219 15.191406 C 9.2949219 15.191406 9.5219581 13.617147 10.173828 12.935547 C 10.998428 12.034747 11.925434 12.025491 12.365234 11.962891 C 15.428134 11.735691 19.998047 11.736328 19.998047 11.736328 z M 17.751953 16.287109 L 17.751953 22.671875 L 23.666016 19.492188 L 20.431641 17.744141 L 17.751953 16.287109 z " />
</svg>
