<?xml version="1.0" encoding="UTF-8" standalone="no"?>
<svg
   xmlns:dc="http://purl.org/dc/elements/1.1/"
   xmlns:cc="http://creativecommons.org/ns#"
   xmlns:rdf="http://www.w3.org/1999/02/22-rdf-syntax-ns#"
   xmlns:svg="http://www.w3.org/2000/svg"
   xmlns="http://www.w3.org/2000/svg"
   xmlns:sodipodi="http://sodipodi.sourceforge.net/DTD/sodipodi-0.dtd"
   xmlns:inkscape="http://www.inkscape.org/namespaces/inkscape"
   width="50"
   height="50"
   viewBox="0 0 50 50"
   fill="none"
   version="1.1"
   id="svg6"
   sodipodi:docname="youtube_alpha.svg"
   inkscape:version="1.0.1 (3bc2e813f5, 2020-09-07)">
  <style
     id="style2400"></style>
  <metadata
     id="metadata12">
    <rdf:RDF>
      <cc:Work
         rdf:about="">
        <dc:format>image/svg+xml</dc:format>
        <dc:type
           rdf:resource="http://purl.org/dc/dcmitype/StillImage" />
        <dc:title></dc:title>
      </cc:Work>
    </rdf:RDF>
  </metadata>
  <defs
     id="defs10" />
  <sodipodi:namedview
     pagecolor="#ffffff"
     bordercolor="#666666"
     borderopacity="1"
     objecttolerance="10"
     gridtolerance="10"
     guidetolerance="10"
     inkscape:pageopacity="0"
     inkscape:pageshadow="2"
     inkscape:window-width="1920"
     inkscape:window-height="1009"
     id="namedview8"
     showgrid="false"
     inkscape:zoom="16.390673"
     inkscape:cx="25.124023"
     inkscape:cy="25"
     inkscape:window-x="-8"
     inkscape:window-y="-8"
     inkscape:window-maximized="1"
     inkscape:current-layer="svg6" />
  <path
     d="M 50,25 C 50,38.8108 38.810783,50 25.000011,50 11.18914,50 0,38.8108 0,25 0,11.1892 11.199037,0 25.000011,0 38.800886,0 50,11.1892 50,25 Z"
     fill="#1535a3"
     id="path2"
     style="stroke-width:0.999998;fill:#1535a3;fill-opacity:0" />
  <path
     fill-rule="evenodd"
     clip-rule="evenodd"
     d="m 38.420423,18.9891 c 0,0 -0.2848,-1.9682 -1.0999,-2.8201 -1.0409,-1.1261 -2.2095,-1.1359 -2.7299,-1.2143 -3.82,-0.2839 -9.5549,-0.2839 -9.5549,-0.2839 h -0.0294 c 0,0 -5.7152,0 -9.545,0.2839 -0.5499,0.0784 -1.7087,0.0882 -2.7398,1.2143 -0.815,0.8519 -1.0998,2.8201 -1.0998,2.8201 0,0 -0.2848,2.3012 -0.2848,4.5828 v 2.1739 c 0,2.3012 0.2848,4.5828 0.2848,4.5828 0,0 0.2848,1.9682 1.0998,2.8397 1.0311,1.1359 2.3961,1.0968 3.0246,1.2143 2.18,0.2252 9.2896,0.2937 9.2896,0.2937 0,0 5.7349,-0.0293 9.5549,-0.2937 0.5204,-0.0784 1.689,-0.0784 2.7299,-1.2143 0.8151,-0.8715 1.0999,-2.8397 1.0999,-2.8397 0,0 0.2651,-2.2718 0.2651,-4.5828 v -2.1739 c 0,-2.2718 -0.2651,-4.5828 -0.2651,-4.5828 z m -8.8282,5.376 -7.3944,3.9757 v -7.9807 l 3.3486,1.8213 z"
     fill="#ffffff"
     id="path4" />
</svg>
