<?xml version="1.0" encoding="UTF-8" standalone="no"?>
<svg
   xmlns:dc="http://purl.org/dc/elements/1.1/"
   xmlns:cc="http://creativecommons.org/ns#"
   xmlns:rdf="http://www.w3.org/1999/02/22-rdf-syntax-ns#"
   xmlns:svg="http://www.w3.org/2000/svg"
   xmlns="http://www.w3.org/2000/svg"
   xmlns:sodipodi="http://sodipodi.sourceforge.net/DTD/sodipodi-0.dtd"
   xmlns:inkscape="http://www.inkscape.org/namespaces/inkscape"
   width="75"
   height="72"
   viewBox="0 0 75 72"
   fill="none"
   version="1.1"
   id="svg6"
   sodipodi:docname="winer.svg"
   inkscape:version="1.0.1 (3bc2e813f5, 2020-09-07)">
  <style
     id="style2400"></style>
  <metadata
     id="metadata12">
    <rdf:RDF>
      <cc:Work
         rdf:about="">
        <dc:format>image/svg+xml</dc:format>
        <dc:type
           rdf:resource="http://purl.org/dc/dcmitype/StillImage" />
        <dc:title></dc:title>
      </cc:Work>
    </rdf:RDF>
  </metadata>
  <defs
     id="defs10" />
  <sodipodi:namedview
     pagecolor="#ffffff"
     bordercolor="#666666"
     borderopacity="1"
     objecttolerance="10"
     gridtolerance="10"
     guidetolerance="10"
     inkscape:pageopacity="0"
     inkscape:pageshadow="2"
     inkscape:window-width="1920"
     inkscape:window-height="1009"
     id="namedview8"
     showgrid="false"
     inkscape:zoom="15.667655"
     inkscape:cx="29.074877"
     inkscape:cy="30.640181"
     inkscape:window-x="-8"
     inkscape:window-y="-8"
     inkscape:window-maximized="1"
     inkscape:current-layer="svg6"
     inkscape:document-rotation="0" />
  <path
     d="M 65.848323,47.432939 67.3112,52.2811 c 0.1357,0.4221 -0.1224,0.8691 -0.5558,0.9626 l -4.0604,0.8762 c -1.4512,0.3132 -2.5057,1.5699 -2.5621,3.0535 l -0.1578,4.1508 c -0.0168,0.4431 -0.4123,0.7749 -0.8515,0.7146 l -4.1153,-0.5654 c -1.4708,-0.2021 -2.8915,0.6182 -3.4519,1.9929 l -1.568,3.8466 c -0.1673,0.4106 -0.6524,0.5872 -1.0445,0.3802 l -3.6737,-1.9388 c -1.313,-0.6929 -2.9286,-0.408 -3.9254,0.6922 l -2.789,3.0783 c -0.2977,0.3286 -0.8139,0.3286 -1.1116,0 l -2.789,-3.0783 c -0.9968,-1.1002 -2.6124,-1.3851 -3.9254,-0.6922 l -3.6737,1.9388 c -0.3921,0.207 -0.8772,0.0304 -1.0445,-0.3802 l -1.568,-3.8466 c -0.5604,-1.3747 -1.9812,-2.195 -3.452,-1.9929 l -4.1152,0.5654 c -0.4392,0.0603 -0.8347,-0.2715 -0.8515,-0.7146 L 15.8671,57.1734 C 15.8107,55.6898 14.7562,54.4331 13.305,54.1199 L 9.24456,53.2437 C 8.81116,53.1502 8.55305,52.7032 8.68876,52.2811 l 1.462897,-4.656683 M 9.96018,23.6734 8.68876,19.7189 C 8.55305,19.2968 8.81116,18.8498 9.24457,18.7563 L 13.305,17.8801 c 1.4512,-0.3132 2.5057,-1.5699 2.5621,-3.0535 l 0.1578,-4.1508 c 0.0168,-0.4431 0.4123,-0.77491 0.8515,-0.71456 l 4.1153,0.56536 c 1.4707,0.2021 2.8915,-0.61816 3.4519,-1.99294 l 1.568,-3.84658 C 26.1789,4.2765 26.664,4.09994 27.0561,4.30689 l 3.6737,1.93879 c 1.313,0.69293 2.9286,0.40805 3.9254,-0.69216 l 2.789,-3.07833 c 0.2977,-0.32858 0.8139,-0.32858 1.1116,0 l 2.789,3.07833 c 0.9968,1.10021 2.6124,1.38509 3.9254,0.69216 L 48.9439,4.30689 C 49.336,4.09994 49.8211,4.2765 49.9884,4.68708 l 1.568,3.84658 c 0.5604,1.37479 1.9812,2.19504 3.4519,1.99294 l 4.1153,-0.56536 c 0.4392,-0.06035 0.8347,0.27146 0.8515,0.71456 l 0.1578,4.1508 c 0.0564,1.4836 1.1109,2.7403 2.5621,3.0535 l 4.0604,0.8762 c 0.4334,0.0935 0.6915,0.5405 0.5558,0.9626 l -1.2714,3.9546"
     stroke="white"
     stroke-width="2.5"
     id="path2"
     style="stroke:#ffffff;stroke-opacity:1"
     sodipodi:nodetypes="ccccscccccccsccscccccccscccccsccccccccccsccscccccccscccc" />
  <rect
     x="1.25"
     y="24.25"
     width="72.5"
     height="22.5"
     rx="3.75"
     fill="#5075f7"
     stroke="#ffffff"
     stroke-width="2.5"
     id="rect4"
     style="fill:none;stroke:#ffffff;stroke-opacity:1" />
</svg>
